<mxfile host="Electron" modified="2024-06-22T10:41:03.329Z" agent="Mozilla/5.0 (X11; Linux x86_64) AppleWebKit/537.36 (KHTML, like Gecko) draw.io/24.2.5 Chrome/122.0.6261.156 Electron/29.3.3 Safari/537.36" etag="M-cn8LaLBbio6GP5bh23" version="24.2.5" type="device">
  <diagram name="Page-1" id="xcEkqkAStGt948F2OmXl">
    <mxGraphModel dx="643" dy="1067" grid="1" gridSize="10" guides="1" tooltips="1" connect="1" arrows="1" fold="1" page="1" pageScale="1" pageWidth="850" pageHeight="1100" math="1" shadow="0">
      <root>
        <mxCell id="0" />
        <mxCell id="1" parent="0" />
        <mxCell id="90Iw-HYkFCQXR-lB0Bmn-2" value="" style="endArrow=classic;html=1;rounded=0;" parent="1" edge="1">
          <mxGeometry width="50" height="50" relative="1" as="geometry">
            <mxPoint x="120" y="440" as="sourcePoint" />
            <mxPoint x="480" y="440" as="targetPoint" />
          </mxGeometry>
        </mxCell>
        <mxCell id="90Iw-HYkFCQXR-lB0Bmn-3" value="" style="endArrow=classic;html=1;rounded=0;" parent="1" edge="1">
          <mxGeometry width="50" height="50" relative="1" as="geometry">
            <mxPoint x="200" y="520" as="sourcePoint" />
            <mxPoint x="200" y="180" as="targetPoint" />
          </mxGeometry>
        </mxCell>
        <mxCell id="90Iw-HYkFCQXR-lB0Bmn-4" value="`x`" style="text;html=1;align=center;verticalAlign=middle;whiteSpace=wrap;rounded=0;fontSize=16;" parent="1" vertex="1">
          <mxGeometry x="470" y="423" width="60" height="30" as="geometry" />
        </mxCell>
        <mxCell id="90Iw-HYkFCQXR-lB0Bmn-5" value="`y&#39;`" style="text;html=1;align=center;verticalAlign=middle;whiteSpace=wrap;rounded=0;fontSize=16;" parent="1" vertex="1">
          <mxGeometry x="170" y="140" width="60" height="30" as="geometry" />
        </mxCell>
        <mxCell id="MTZFBpwM9Xv1V1m-rhOq-2" value="`y&#39; = \frac {a%m} {m} x&amp;nbsp;+ \frac {b%m} {m}`" style="text;html=1;align=center;verticalAlign=middle;whiteSpace=wrap;rounded=0;fontSize=16;fontColor=#7EA6E0;" parent="1" vertex="1">
          <mxGeometry x="340" y="290" width="170" height="30" as="geometry" />
        </mxCell>
        <mxCell id="MTZFBpwM9Xv1V1m-rhOq-4" value="" style="endArrow=none;html=1;rounded=0;" parent="1" edge="1">
          <mxGeometry width="50" height="50" relative="1" as="geometry">
            <mxPoint x="200" y="422" as="sourcePoint" />
            <mxPoint x="200.0000000000001" y="422" as="targetPoint" />
          </mxGeometry>
        </mxCell>
        <mxCell id="d5rSLgrOkH3s8ws7rRvm-17" value="`x&#39;&#39;`" style="text;html=1;align=center;verticalAlign=middle;whiteSpace=wrap;rounded=0;fontSize=16;fontColor=#FFB570;" parent="1" vertex="1">
          <mxGeometry x="291" y="520" width="60" height="30" as="geometry" />
        </mxCell>
        <mxCell id="d5rSLgrOkH3s8ws7rRvm-18" value="`y&#39;&#39;`" style="text;html=1;align=center;verticalAlign=middle;whiteSpace=wrap;rounded=0;fontSize=16;fontColor=#FFB570;" parent="1" vertex="1">
          <mxGeometry x="70" y="343" width="60" height="30" as="geometry" />
        </mxCell>
        <mxCell id="d5rSLgrOkH3s8ws7rRvm-20" value="" style="shape=manualInput;whiteSpace=wrap;html=1;size=62;fillColor=#dae8fc;strokeColor=#6c8ebf;" parent="1" vertex="1">
          <mxGeometry x="200" y="360" width="92" height="80" as="geometry" />
        </mxCell>
        <mxCell id="d5rSLgrOkH3s8ws7rRvm-21" value="" style="rounded=0;whiteSpace=wrap;html=1;strokeColor=none;fillColor=#dae8fc;" parent="1" vertex="1">
          <mxGeometry x="291" y="360" width="29" height="80" as="geometry" />
        </mxCell>
        <mxCell id="d5rSLgrOkH3s8ws7rRvm-16" value="" style="endArrow=classic;html=1;rounded=0;flowAnimation=0;anchorPointDirection=1;strokeColor=#d79b00;fillColor=#ffe6cc;" parent="1" edge="1">
          <mxGeometry width="50" height="50" relative="1" as="geometry">
            <mxPoint x="320" y="320" as="sourcePoint" />
            <mxPoint x="320" y="520" as="targetPoint" />
          </mxGeometry>
        </mxCell>
        <mxCell id="d5rSLgrOkH3s8ws7rRvm-15" value="" style="endArrow=classic;html=1;rounded=0;flowAnimation=0;anchorPointDirection=1;strokeColor=#d79b00;fillColor=#ffe6cc;" parent="1" edge="1">
          <mxGeometry width="50" height="50" relative="1" as="geometry">
            <mxPoint x="360" y="360" as="sourcePoint" />
            <mxPoint x="120" y="360" as="targetPoint" />
          </mxGeometry>
        </mxCell>
        <mxCell id="d5rSLgrOkH3s8ws7rRvm-6" value="`n`" style="text;html=1;align=center;verticalAlign=middle;whiteSpace=wrap;rounded=0;fontSize=16;" parent="1" vertex="1">
          <mxGeometry x="296" y="440" width="50" height="30" as="geometry" />
        </mxCell>
        <mxCell id="d5rSLgrOkH3s8ws7rRvm-29" value="" style="endArrow=none;dashed=1;html=1;dashPattern=1 3;strokeWidth=2;rounded=0;" parent="1" edge="1">
          <mxGeometry width="50" height="50" relative="1" as="geometry">
            <mxPoint x="360" y="360" as="sourcePoint" />
            <mxPoint x="480" y="360" as="targetPoint" />
          </mxGeometry>
        </mxCell>
        <mxCell id="d5rSLgrOkH3s8ws7rRvm-30" value="`y&#39; = \lfloor y&#39;(n) \rfloor`" style="text;html=1;align=center;verticalAlign=middle;whiteSpace=wrap;rounded=0;fontSize=16;" parent="1" vertex="1">
          <mxGeometry x="450" y="342" width="170" height="30" as="geometry" />
        </mxCell>
        <mxCell id="MTZFBpwM9Xv1V1m-rhOq-1" value="" style="endArrow=none;html=1;rounded=0;strokeColor=#7EA6E0;" parent="1" edge="1">
          <mxGeometry width="50" height="50" relative="1" as="geometry">
            <mxPoint x="200.0000000000001" y="422" as="sourcePoint" />
            <mxPoint x="319" y="342" as="targetPoint" />
            <Array as="points">
              <mxPoint x="200" y="422" />
            </Array>
          </mxGeometry>
        </mxCell>
        <mxCell id="d5rSLgrOkH3s8ws7rRvm-35" value="" style="endArrow=none;html=1;rounded=0;dashed=1;strokeColor=#7EA6E0;" parent="1" edge="1">
          <mxGeometry width="50" height="50" relative="1" as="geometry">
            <mxPoint x="173.0000000000001" y="440" as="sourcePoint" />
            <mxPoint x="200" y="422" as="targetPoint" />
            <Array as="points">
              <mxPoint x="173" y="440" />
            </Array>
          </mxGeometry>
        </mxCell>
        <mxCell id="d5rSLgrOkH3s8ws7rRvm-38" value="" style="endArrow=none;dashed=1;html=1;dashPattern=1 3;strokeWidth=2;rounded=0;" parent="1" edge="1">
          <mxGeometry width="50" height="50" relative="1" as="geometry">
            <mxPoint x="159" y="200" as="sourcePoint" />
            <mxPoint x="159" y="520" as="targetPoint" />
          </mxGeometry>
        </mxCell>
        <mxCell id="d5rSLgrOkH3s8ws7rRvm-39" value="`x = -1`" style="text;html=1;align=center;verticalAlign=middle;whiteSpace=wrap;rounded=0;fontSize=16;" parent="1" vertex="1">
          <mxGeometry x="40" y="220" width="170" height="30" as="geometry" />
        </mxCell>
        <mxCell id="1KVkW1SYV1iP6Yp7Q0To-8" value="" style="ellipse;whiteSpace=wrap;html=1;aspect=fixed;strokeColor=none;fillColor=#000000;" parent="1" vertex="1">
          <mxGeometry x="238" y="397" width="6" height="6" as="geometry" />
        </mxCell>
        <mxCell id="1KVkW1SYV1iP6Yp7Q0To-9" value="" style="ellipse;whiteSpace=wrap;html=1;aspect=fixed;strokeColor=none;fillColor=#000000;" parent="1" vertex="1">
          <mxGeometry x="278" y="397" width="6" height="6" as="geometry" />
        </mxCell>
        <mxCell id="1KVkW1SYV1iP6Yp7Q0To-14" value="" style="endArrow=none;dashed=1;html=1;dashPattern=1 3;strokeWidth=2;rounded=0;" parent="1" edge="1">
          <mxGeometry width="50" height="50" relative="1" as="geometry">
            <mxPoint x="239.71" y="200" as="sourcePoint" />
            <mxPoint x="239.71" y="520" as="targetPoint" />
          </mxGeometry>
        </mxCell>
        <mxCell id="1KVkW1SYV1iP6Yp7Q0To-15" value="" style="endArrow=none;dashed=1;html=1;dashPattern=1 3;strokeWidth=2;rounded=0;" parent="1" edge="1">
          <mxGeometry width="50" height="50" relative="1" as="geometry">
            <mxPoint x="280" y="200" as="sourcePoint" />
            <mxPoint x="280" y="520" as="targetPoint" />
          </mxGeometry>
        </mxCell>
        <mxCell id="1KVkW1SYV1iP6Yp7Q0To-18" value="" style="verticalLabelPosition=bottom;verticalAlign=top;html=1;shape=mxgraph.basic.orthogonal_triangle;flipH=1;strokeColor=none;fillColor=#B5739D;" parent="1" vertex="1">
          <mxGeometry x="293" y="342" width="27" height="18" as="geometry" />
        </mxCell>
        <mxCell id="1KVkW1SYV1iP6Yp7Q0To-19" value="" style="verticalLabelPosition=bottom;verticalAlign=top;html=1;shape=mxgraph.basic.orthogonal_triangle;flipH=1;strokeColor=none;fillColor=#FFD966;" parent="1" vertex="1">
          <mxGeometry x="174" y="423" width="26" height="17" as="geometry" />
        </mxCell>
        <mxCell id="ZbqtTtIqiEE7X0KG74-B-2" value="`:= y&#39;(x)`" style="text;html=1;align=center;verticalAlign=middle;whiteSpace=wrap;rounded=0;fontSize=16;fontColor=#7EA6E0;" vertex="1" parent="1">
          <mxGeometry x="292" y="325" width="170" height="30" as="geometry" />
        </mxCell>
      </root>
    </mxGraphModel>
  </diagram>
</mxfile>
